<!DOCTYPE svg PUBLIC "-//W3C//DTD SVG 1.1//EN" "http://www.w3.org/Graphics/SVG/1.1/DTD/svg11.dtd">
<!-- Uploaded to: SVG Repo, www.svgrepo.com, Transformed by: SVG Repo Mixer Tools -->
<svg fill="#ffffff" width="800px" height="800px" viewBox="-5 -5 24 24" xmlns="http://www.w3.org/2000/svg" preserveAspectRatio="xMinYMin" class="jam jam-download" stroke="#ffffff" stroke-width="0.36">
<g id="SVGRepo_bgCarrier" stroke-width="0"/>
<g id="SVGRepo_tracerCarrier" stroke-linecap="round" stroke-linejoin="round"/>
<g id="SVGRepo_iconCarrier">
<path d="M8 6.641l1.121-1.12a1 1 0 0 1 1.415 1.413L7.707 9.763a.997.997 0 0 1-1.414 0L3.464 6.934A1 1 0 1 1 4.88 5.52L6 6.641V1a1 1 0 1 1 2 0v5.641zM1 12h12a1 1 0 0 1 0 2H1a1 1 0 0 1 0-2z"/>
</g>
</svg>