<!DOCTYPE svg PUBLIC "-//W3C//DTD SVG 1.1//EN" "http://www.w3.org/Graphics/SVG/1.1/DTD/svg11.dtd">
<!-- Uploaded to: SVG Repo, www.svgrepo.com, Transformed by: SVG Repo Mixer Tools -->
<svg fill="#ffffff" width="800px" height="800px" viewBox="0 0 24 24" xmlns="http://www.w3.org/2000/svg" data-name="Layer 1">
<g id="SVGRepo_bgCarrier" stroke-width="0"/>
<g id="SVGRepo_tracerCarrier" stroke-linecap="round" stroke-linejoin="round"/>
<g id="SVGRepo_iconCarrier">
<path d="M12,2A10,10,0,0,0,8.59,21.39l.06,0a9.81,9.81,0,0,0,6.7,0l.06,0A10,10,0,0,0,12,2Zm2,17.74a7.82,7.82,0,0,1-4,0V16h4Zm2-.82V11a1,1,0,0,0,0-2H14a1,1,0,0,0,0,2v3H10V11a1,1,0,0,0,0-2H8a1,1,0,0,0,0,2v7.92a8,8,0,1,1,8,0Z"/>
</g>
</svg>